<svg width="30" height="30" viewBox="0 0 30 30" fill="none" xmlns="http://www.w3.org/2000/svg">
<mask id="path-1-inside-1_429_295" fill="white">
<path d="M17.7965 3.40144C17.8501 3.44214 17.9037 3.48285 17.959 3.52479C19.3804 4.6372 20.1111 6.19919 20.257 7.87691C20.356 9.3851 19.7777 10.9815 18.6851 12.1231C18.4192 12.3926 18.1375 12.648 17.8511 12.8994C17.8871 12.9118 17.9231 12.9243 17.9601 12.9371C19.0712 13.3247 20.1092 13.7576 21.0771 14.3912C21.1077 14.4112 21.1382 14.4312 21.1697 14.4518C21.6442 14.7657 22.0758 15.116 22.4988 15.4852C22.5664 15.5437 22.5664 15.5437 22.6354 15.6033C23.6077 16.463 24.4256 17.5829 24.9593 18.7175C24.9593 18.7667 24.9593 18.816 24.9593 18.8667C24.9898 18.8734 25.0204 18.8801 25.052 18.8871C26.3612 19.2068 27.5041 20.0776 28.188 21.1285C28.943 22.349 29.225 23.8063 28.8046 25.1766C28.3087 26.6241 27.2916 27.744 25.8162 28.4536C25.4163 28.6382 25.0104 28.762 24.5765 28.8619C24.5249 28.8741 24.4733 28.8863 24.4202 28.8988C22.9368 29.1834 21.3572 28.8504 20.0929 28.116C19.5802 27.786 19.5802 27.786 19.4127 27.5641C19.1833 27.4091 18.9374 27.4425 18.6593 27.4447C18.5642 27.4443 18.5642 27.4443 18.4673 27.4439C18.2914 27.4434 18.1155 27.4437 17.9395 27.4444C17.7498 27.445 17.5601 27.4444 17.3704 27.4439C17.0415 27.4433 16.7126 27.4433 16.3837 27.4439C15.9075 27.4446 15.4313 27.4441 14.9551 27.4433C14.1816 27.442 13.408 27.4414 12.6345 27.4415C12.5881 27.4415 12.5418 27.4415 12.4941 27.4415C12.3065 27.4415 12.1189 27.4415 11.9313 27.4415C11.4159 27.4416 10.9004 27.4415 10.3849 27.4414C10.3388 27.4414 10.2927 27.4414 10.2452 27.4414C9.47505 27.4411 8.70493 27.4403 7.93481 27.4391C7.4601 27.4384 6.98541 27.4383 6.5107 27.4389C6.18501 27.4392 5.85932 27.4391 5.53362 27.4385C5.34595 27.4382 5.15828 27.4382 4.97061 27.4388C4.7666 27.4393 4.56262 27.4389 4.35861 27.4383C4.30004 27.4387 4.24146 27.4391 4.18112 27.4394C3.32663 27.4341 2.5731 27.1823 1.95356 26.6415C1.24175 25.966 1.00277 25.204 1.00118 24.2868C1.00095 24.2454 1.00071 24.204 1.00047 24.1614C0.999929 24.0281 0.999923 23.8949 1.00011 23.7617C1.00017 23.7161 1.00022 23.6704 1.00027 23.6234C1.00662 21.0158 1.66031 18.5531 3.47087 16.4798C3.50498 16.4386 3.5391 16.3975 3.57424 16.3551C4.19312 15.6304 4.94635 14.9735 5.76734 14.4409C5.79709 14.4211 5.82684 14.4012 5.8575 14.3808C6.84078 13.7285 7.95759 13.2619 9.10269 12.8994C9.05606 12.8632 9.05606 12.8632 9.00849 12.8264C7.67607 11.7744 6.83766 10.2746 6.69686 8.67255C6.58265 7.00556 7.11084 5.37774 8.33666 4.11434C10.7738 1.67555 14.9614 1.22538 17.7965 3.40144ZM9.70414 4.69435C9.66721 4.72423 9.63028 4.7541 9.59222 4.78487C8.73497 5.50526 8.17538 6.65264 8.11081 7.70346C8.0529 9.2037 8.4765 10.428 9.59479 11.5567C10.554 12.4805 11.8705 12.9817 13.2533 13.0608C14.6342 13.0829 15.9318 12.6791 16.9763 11.8551C17.0592 11.7982 17.0592 11.7982 17.1437 11.7401C18.1133 10.9334 18.7631 9.71544 18.8421 8.5198C18.8976 7.10387 18.4252 5.86585 17.3827 4.79944C16.4878 3.94999 15.197 3.31583 13.8793 3.29014C12.2188 3.26458 10.9243 3.63371 9.70414 4.69435ZM5.71266 16.1814C5.68095 16.208 5.64924 16.2346 5.61657 16.262C4.10489 17.5461 3.07272 19.2537 2.63361 21.0889C2.62152 21.1392 2.62152 21.1392 2.60919 21.1905C2.44175 21.9558 2.41159 22.7264 2.41173 23.5043C2.41148 23.6633 2.40948 23.8222 2.40743 23.9811C2.40711 24.0841 2.40689 24.187 2.40679 24.2899C2.406 24.3365 2.40522 24.3831 2.40441 24.431C2.40789 24.8953 2.5557 25.3907 2.92409 25.7291C3.37628 26.0581 3.76206 26.1418 4.33172 26.1389C4.39094 26.1389 4.45017 26.139 4.51119 26.1391C4.70966 26.1393 4.90812 26.1387 5.10658 26.1382C5.24885 26.1382 5.39111 26.1382 5.53337 26.1382C5.83966 26.1383 6.14595 26.138 6.45224 26.1374C6.89508 26.1366 7.33791 26.1363 7.78076 26.1362C8.49926 26.136 9.21777 26.1353 9.93628 26.1344C10.6342 26.1335 11.3321 26.1328 12.03 26.1324C12.073 26.1323 12.116 26.1323 12.1603 26.1323C12.3762 26.1322 12.5921 26.132 12.808 26.1319C14.5984 26.1309 16.3888 26.1291 18.1792 26.1269C18.1679 26.0961 18.1565 26.0653 18.1448 26.0335C18.13 25.9931 18.1152 25.9527 18.0999 25.9111C18.0851 25.8711 18.0704 25.831 18.0552 25.7898C17.9872 25.6023 17.9294 25.4127 17.8716 25.2225C17.8598 25.1843 17.848 25.1461 17.8358 25.1068C17.8243 25.0694 17.8129 25.032 17.8012 24.9935C17.791 24.9604 17.7809 24.9273 17.7705 24.8932C17.4339 23.6158 17.7563 22.2485 18.449 21.1205C19.2764 19.91 20.5191 19.1254 22.034 18.7797C22.4401 18.7011 22.8519 18.659 23.2642 18.618C23.1887 18.3743 23.0682 18.1789 22.9123 17.9716C22.8878 17.939 22.8634 17.9064 22.8382 17.8728C22.7623 17.7726 22.6855 17.673 22.6081 17.5738C22.575 17.531 22.575 17.531 22.5413 17.4875C21.8687 16.6318 21.0014 15.8673 20.0382 15.2863C20.0057 15.2666 19.9732 15.2468 19.9396 15.2265C18.9085 14.6117 17.7699 14.1903 16.5765 13.9219C16.5191 13.9087 16.5191 13.9087 16.4605 13.8953C16.247 13.8504 16.0927 13.8373 15.8827 13.8939C15.8138 13.9123 15.7449 13.9307 15.6739 13.9497C15.5568 13.9821 15.4399 14.0147 15.3231 14.0479C14.7174 14.2146 14.1364 14.2622 13.5043 14.2607C13.4465 14.2607 13.4465 14.2607 13.3877 14.2607C12.5548 14.2588 11.808 14.1405 11.0247 13.8807C9.48454 13.4028 6.76351 15.2997 5.71266 16.1814ZM20.421 20.9055C20.3784 20.9403 20.3359 20.975 20.292 21.0108C19.9819 21.2767 19.7565 21.564 19.5462 21.9001C19.5208 21.9394 19.4955 21.9787 19.4695 22.0191C18.9038 22.9621 18.8944 24.0442 19.2179 25.0537C19.5966 26.0321 20.3823 26.8572 21.4052 27.3204C22.5226 27.7387 23.7565 27.8521 24.8983 27.4316C25.3261 27.2637 25.6994 27.0488 26.0528 26.7734C26.085 26.7512 26.1172 26.729 26.1504 26.7061C26.947 26.1418 27.3984 25.1966 27.5612 24.3117C27.6949 23.2843 27.4057 22.2858 26.7346 21.4556C25.9888 20.6143 25.002 20.0523 23.811 19.911C22.5501 19.8148 21.3632 20.1176 20.421 20.9055Z"/>
</mask>
<path d="M17.7965 3.40144C17.8501 3.44214 17.9037 3.48285 17.959 3.52479C19.3804 4.6372 20.1111 6.19919 20.257 7.87691C20.356 9.3851 19.7777 10.9815 18.6851 12.1231C18.4192 12.3926 18.1375 12.648 17.8511 12.8994C17.8871 12.9118 17.9231 12.9243 17.9601 12.9371C19.0712 13.3247 20.1092 13.7576 21.0771 14.3912C21.1077 14.4112 21.1382 14.4312 21.1697 14.4518C21.6442 14.7657 22.0758 15.116 22.4988 15.4852C22.5664 15.5437 22.5664 15.5437 22.6354 15.6033C23.6077 16.463 24.4256 17.5829 24.9593 18.7175C24.9593 18.7667 24.9593 18.816 24.9593 18.8667C24.9898 18.8734 25.0204 18.8801 25.052 18.8871C26.3612 19.2068 27.5041 20.0776 28.188 21.1285C28.943 22.349 29.225 23.8063 28.8046 25.1766C28.3087 26.6241 27.2916 27.744 25.8162 28.4536C25.4163 28.6382 25.0104 28.762 24.5765 28.8619C24.5249 28.8741 24.4733 28.8863 24.4202 28.8988C22.9368 29.1834 21.3572 28.8504 20.0929 28.116C19.5802 27.786 19.5802 27.786 19.4127 27.5641C19.1833 27.4091 18.9374 27.4425 18.6593 27.4447C18.5642 27.4443 18.5642 27.4443 18.4673 27.4439C18.2914 27.4434 18.1155 27.4437 17.9395 27.4444C17.7498 27.445 17.5601 27.4444 17.3704 27.4439C17.0415 27.4433 16.7126 27.4433 16.3837 27.4439C15.9075 27.4446 15.4313 27.4441 14.9551 27.4433C14.1816 27.442 13.408 27.4414 12.6345 27.4415C12.5881 27.4415 12.5418 27.4415 12.4941 27.4415C12.3065 27.4415 12.1189 27.4415 11.9313 27.4415C11.4159 27.4416 10.9004 27.4415 10.3849 27.4414C10.3388 27.4414 10.2927 27.4414 10.2452 27.4414C9.47505 27.4411 8.70493 27.4403 7.93481 27.4391C7.4601 27.4384 6.98541 27.4383 6.5107 27.4389C6.18501 27.4392 5.85932 27.4391 5.53362 27.4385C5.34595 27.4382 5.15828 27.4382 4.97061 27.4388C4.7666 27.4393 4.56262 27.4389 4.35861 27.4383C4.30004 27.4387 4.24146 27.4391 4.18112 27.4394C3.32663 27.4341 2.5731 27.1823 1.95356 26.6415C1.24175 25.966 1.00277 25.204 1.00118 24.2868C1.00095 24.2454 1.00071 24.204 1.00047 24.1614C0.999929 24.0281 0.999923 23.8949 1.00011 23.7617C1.00017 23.7161 1.00022 23.6704 1.00027 23.6234C1.00662 21.0158 1.66031 18.5531 3.47087 16.4798C3.50498 16.4386 3.5391 16.3975 3.57424 16.3551C4.19312 15.6304 4.94635 14.9735 5.76734 14.4409C5.79709 14.4211 5.82684 14.4012 5.8575 14.3808C6.84078 13.7285 7.95759 13.2619 9.10269 12.8994C9.05606 12.8632 9.05606 12.8632 9.00849 12.8264C7.67607 11.7744 6.83766 10.2746 6.69686 8.67255C6.58265 7.00556 7.11084 5.37774 8.33666 4.11434C10.7738 1.67555 14.9614 1.22538 17.7965 3.40144ZM9.70414 4.69435C9.66721 4.72423 9.63028 4.7541 9.59222 4.78487C8.73497 5.50526 8.17538 6.65264 8.11081 7.70346C8.0529 9.2037 8.4765 10.428 9.59479 11.5567C10.554 12.4805 11.8705 12.9817 13.2533 13.0608C14.6342 13.0829 15.9318 12.6791 16.9763 11.8551C17.0592 11.7982 17.0592 11.7982 17.1437 11.7401C18.1133 10.9334 18.7631 9.71544 18.8421 8.5198C18.8976 7.10387 18.4252 5.86585 17.3827 4.79944C16.4878 3.94999 15.197 3.31583 13.8793 3.29014C12.2188 3.26458 10.9243 3.63371 9.70414 4.69435ZM5.71266 16.1814C5.68095 16.208 5.64924 16.2346 5.61657 16.262C4.10489 17.5461 3.07272 19.2537 2.63361 21.0889C2.62152 21.1392 2.62152 21.1392 2.60919 21.1905C2.44175 21.9558 2.41159 22.7264 2.41173 23.5043C2.41148 23.6633 2.40948 23.8222 2.40743 23.9811C2.40711 24.0841 2.40689 24.187 2.40679 24.2899C2.406 24.3365 2.40522 24.3831 2.40441 24.431C2.40789 24.8953 2.5557 25.3907 2.92409 25.7291C3.37628 26.0581 3.76206 26.1418 4.33172 26.1389C4.39094 26.1389 4.45017 26.139 4.51119 26.1391C4.70966 26.1393 4.90812 26.1387 5.10658 26.1382C5.24885 26.1382 5.39111 26.1382 5.53337 26.1382C5.83966 26.1383 6.14595 26.138 6.45224 26.1374C6.89508 26.1366 7.33791 26.1363 7.78076 26.1362C8.49926 26.136 9.21777 26.1353 9.93628 26.1344C10.6342 26.1335 11.3321 26.1328 12.03 26.1324C12.073 26.1323 12.116 26.1323 12.1603 26.1323C12.3762 26.1322 12.5921 26.132 12.808 26.1319C14.5984 26.1309 16.3888 26.1291 18.1792 26.1269C18.1679 26.0961 18.1565 26.0653 18.1448 26.0335C18.13 25.9931 18.1152 25.9527 18.0999 25.9111C18.0851 25.8711 18.0704 25.831 18.0552 25.7898C17.9872 25.6023 17.9294 25.4127 17.8716 25.2225C17.8598 25.1843 17.848 25.1461 17.8358 25.1068C17.8243 25.0694 17.8129 25.032 17.8012 24.9935C17.791 24.9604 17.7809 24.9273 17.7705 24.8932C17.4339 23.6158 17.7563 22.2485 18.449 21.1205C19.2764 19.91 20.5191 19.1254 22.034 18.7797C22.4401 18.7011 22.8519 18.659 23.2642 18.618C23.1887 18.3743 23.0682 18.1789 22.9123 17.9716C22.8878 17.939 22.8634 17.9064 22.8382 17.8728C22.7623 17.7726 22.6855 17.673 22.6081 17.5738C22.575 17.531 22.575 17.531 22.5413 17.4875C21.8687 16.6318 21.0014 15.8673 20.0382 15.2863C20.0057 15.2666 19.9732 15.2468 19.9396 15.2265C18.9085 14.6117 17.7699 14.1903 16.5765 13.9219C16.5191 13.9087 16.5191 13.9087 16.4605 13.8953C16.247 13.8504 16.0927 13.8373 15.8827 13.8939C15.8138 13.9123 15.7449 13.9307 15.6739 13.9497C15.5568 13.9821 15.4399 14.0147 15.3231 14.0479C14.7174 14.2146 14.1364 14.2622 13.5043 14.2607C13.4465 14.2607 13.4465 14.2607 13.3877 14.2607C12.5548 14.2588 11.808 14.1405 11.0247 13.8807C9.48454 13.4028 6.76351 15.2997 5.71266 16.1814ZM20.421 20.9055C20.3784 20.9403 20.3359 20.975 20.292 21.0108C19.9819 21.2767 19.7565 21.564 19.5462 21.9001C19.5208 21.9394 19.4955 21.9787 19.4695 22.0191C18.9038 22.9621 18.8944 24.0442 19.2179 25.0537C19.5966 26.0321 20.3823 26.8572 21.4052 27.3204C22.5226 27.7387 23.7565 27.8521 24.8983 27.4316C25.3261 27.2637 25.6994 27.0488 26.0528 26.7734C26.085 26.7512 26.1172 26.729 26.1504 26.7061C26.947 26.1418 27.3984 25.1966 27.5612 24.3117C27.6949 23.2843 27.4057 22.2858 26.7346 21.4556C25.9888 20.6143 25.002 20.0523 23.811 19.911C22.5501 19.8148 21.3632 20.1176 20.421 20.9055Z" fill="white" stroke="white" stroke-width="2" mask="url(#path-1-inside-1_429_295)"/>
<mask id="path-2-inside-2_429_295" fill="white">
<path d="M23.7865 21.0217C23.9526 21.096 24.0678 21.1905 24.1527 21.3364C24.1574 21.403 24.1588 21.4698 24.1586 21.5365C24.1586 21.5987 24.1586 21.5987 24.1586 21.662C24.1584 21.7068 24.1581 21.7516 24.1578 21.7977C24.1577 21.8435 24.1577 21.8893 24.1576 21.9365C24.1573 22.0831 24.1566 22.2297 24.156 22.3764C24.1557 22.4756 24.1555 22.5748 24.1552 22.6741C24.1547 22.9177 24.1538 23.1614 24.1527 23.405C24.2208 23.4043 24.2889 23.4036 24.359 23.4029C24.6123 23.4004 24.8656 23.3989 25.1189 23.3976C25.2284 23.3969 25.3379 23.396 25.4474 23.3948C25.6051 23.3932 25.7627 23.3924 25.9204 23.3918C25.9691 23.3911 26.0178 23.3904 26.0681 23.3897C26.3869 23.3897 26.61 23.4272 26.8633 23.6074C26.9993 23.755 27.0012 23.9278 26.9998 24.1084C26.9616 24.292 26.8287 24.4134 26.6638 24.5292C26.5158 24.5717 26.4262 24.5797 26.273 24.5793C26.2023 24.5793 26.2023 24.5793 26.1302 24.5793C26.0795 24.5791 26.0288 24.5788 25.9766 24.5786C25.8985 24.5785 25.8985 24.5785 25.8189 24.5784C25.6526 24.5781 25.4863 24.5776 25.32 24.577C25.2073 24.5768 25.0946 24.5766 24.9819 24.5764C24.7055 24.5759 24.4291 24.5751 24.1527 24.5742C24.1533 24.5995 24.1539 24.6248 24.1545 24.6509C24.1603 24.915 24.1642 25.1791 24.1671 25.4432C24.1684 25.5417 24.1702 25.6401 24.1724 25.7386C24.1756 25.8804 24.1771 26.0221 24.1782 26.1639C24.1796 26.2078 24.1809 26.2516 24.1823 26.2968C24.1824 26.4993 24.1798 26.6422 24.0279 26.8036C23.8187 26.9703 23.7099 27.0036 23.4235 26.9997C23.1846 26.9674 23.0644 26.88 22.8971 26.7327C22.8478 26.6054 22.8384 26.5284 22.8389 26.3967C22.8389 26.3562 22.8389 26.3157 22.8389 26.274C22.8391 26.2304 22.8394 26.1868 22.8397 26.142C22.8398 26.0972 22.8398 26.0525 22.8399 26.0064C22.8402 25.8635 22.8409 25.7205 22.8415 25.5776C22.8418 25.4807 22.842 25.3838 22.8423 25.2869C22.8428 25.0494 22.8437 24.8118 22.8448 24.5742C22.8016 24.5748 22.8016 24.5748 22.7575 24.5754C22.4571 24.5794 22.1567 24.5821 21.8562 24.5841C21.7442 24.585 21.6321 24.5862 21.5201 24.5878C21.3588 24.59 21.1976 24.591 21.0362 24.5918C20.9864 24.5927 20.9365 24.5936 20.8851 24.5946C20.5788 24.5947 20.4113 24.5674 20.1767 24.3943C20.0259 24.2387 19.9911 24.1025 20.0018 23.8993C20.0331 23.7434 20.1067 23.6559 20.229 23.5399C20.5312 23.3981 20.7831 23.3868 21.1231 23.3918C21.1725 23.392 21.2219 23.3922 21.2728 23.3924C21.4295 23.3932 21.5862 23.3949 21.7429 23.3966C21.8496 23.3973 21.9563 23.3979 22.063 23.3984C22.3236 23.3999 22.5842 23.4022 22.8448 23.405C22.8443 23.3803 22.8439 23.3555 22.8434 23.33C22.8388 23.0718 22.8356 22.8135 22.8333 22.5553C22.8323 22.459 22.8308 22.3626 22.829 22.2663C22.8265 22.1277 22.8253 21.9891 22.8244 21.8504C22.8228 21.7861 22.8228 21.7861 22.8211 21.7205C22.821 21.4646 22.8499 21.3122 23.0541 21.1116C23.2873 20.978 23.5131 20.9878 23.7865 21.0217Z"/>
</mask>
<path d="M23.7865 21.0217C23.9526 21.096 24.0678 21.1905 24.1527 21.3364C24.1574 21.403 24.1588 21.4698 24.1586 21.5365C24.1586 21.5987 24.1586 21.5987 24.1586 21.662C24.1584 21.7068 24.1581 21.7516 24.1578 21.7977C24.1577 21.8435 24.1577 21.8893 24.1576 21.9365C24.1573 22.0831 24.1566 22.2297 24.156 22.3764C24.1557 22.4756 24.1555 22.5748 24.1552 22.6741C24.1547 22.9177 24.1538 23.1614 24.1527 23.405C24.2208 23.4043 24.2889 23.4036 24.359 23.4029C24.6123 23.4004 24.8656 23.3989 25.1189 23.3976C25.2284 23.3969 25.3379 23.396 25.4474 23.3948C25.6051 23.3932 25.7627 23.3924 25.9204 23.3918C25.9691 23.3911 26.0178 23.3904 26.0681 23.3897C26.3869 23.3897 26.61 23.4272 26.8633 23.6074C26.9993 23.755 27.0012 23.9278 26.9998 24.1084C26.9616 24.292 26.8287 24.4134 26.6638 24.5292C26.5158 24.5717 26.4262 24.5797 26.273 24.5793C26.2023 24.5793 26.2023 24.5793 26.1302 24.5793C26.0795 24.5791 26.0288 24.5788 25.9766 24.5786C25.8985 24.5785 25.8985 24.5785 25.8189 24.5784C25.6526 24.5781 25.4863 24.5776 25.32 24.577C25.2073 24.5768 25.0946 24.5766 24.9819 24.5764C24.7055 24.5759 24.4291 24.5751 24.1527 24.5742C24.1533 24.5995 24.1539 24.6248 24.1545 24.6509C24.1603 24.915 24.1642 25.1791 24.1671 25.4432C24.1684 25.5417 24.1702 25.6401 24.1724 25.7386C24.1756 25.8804 24.1771 26.0221 24.1782 26.1639C24.1796 26.2078 24.1809 26.2516 24.1823 26.2968C24.1824 26.4993 24.1798 26.6422 24.0279 26.8036C23.8187 26.9703 23.7099 27.0036 23.4235 26.9997C23.1846 26.9674 23.0644 26.88 22.8971 26.7327C22.8478 26.6054 22.8384 26.5284 22.8389 26.3967C22.8389 26.3562 22.8389 26.3157 22.8389 26.274C22.8391 26.2304 22.8394 26.1868 22.8397 26.142C22.8398 26.0972 22.8398 26.0525 22.8399 26.0064C22.8402 25.8635 22.8409 25.7205 22.8415 25.5776C22.8418 25.4807 22.842 25.3838 22.8423 25.2869C22.8428 25.0494 22.8437 24.8118 22.8448 24.5742C22.8016 24.5748 22.8016 24.5748 22.7575 24.5754C22.4571 24.5794 22.1567 24.5821 21.8562 24.5841C21.7442 24.585 21.6321 24.5862 21.5201 24.5878C21.3588 24.59 21.1976 24.591 21.0362 24.5918C20.9864 24.5927 20.9365 24.5936 20.8851 24.5946C20.5788 24.5947 20.4113 24.5674 20.1767 24.3943C20.0259 24.2387 19.9911 24.1025 20.0018 23.8993C20.0331 23.7434 20.1067 23.6559 20.229 23.5399C20.5312 23.3981 20.7831 23.3868 21.1231 23.3918C21.1725 23.392 21.2219 23.3922 21.2728 23.3924C21.4295 23.3932 21.5862 23.3949 21.7429 23.3966C21.8496 23.3973 21.9563 23.3979 22.063 23.3984C22.3236 23.3999 22.5842 23.4022 22.8448 23.405C22.8443 23.3803 22.8439 23.3555 22.8434 23.33C22.8388 23.0718 22.8356 22.8135 22.8333 22.5553C22.8323 22.459 22.8308 22.3626 22.829 22.2663C22.8265 22.1277 22.8253 21.9891 22.8244 21.8504C22.8228 21.7861 22.8228 21.7861 22.8211 21.7205C22.821 21.4646 22.8499 21.3122 23.0541 21.1116C23.2873 20.978 23.5131 20.9878 23.7865 21.0217Z" fill="white"/>
<path d="M23.7865 21.0217L24.603 19.1959L24.3296 19.0736L24.0323 19.0368L23.7865 21.0217ZM24.1527 21.3364L26.1478 21.196L26.1151 20.7325L25.8815 20.3308L24.1527 21.3364ZM24.1586 21.5365L22.1586 21.5302L22.1586 21.5364L24.1586 21.5365ZM24.1586 21.662L26.1586 21.6741L26.1586 21.6622L24.1586 21.662ZM24.1578 21.7977L22.1578 21.7857L22.1578 21.7945L24.1578 21.7977ZM24.1576 21.9365L26.1576 21.9405L26.1576 21.9397L24.1576 21.9365ZM24.156 22.3764L22.156 22.3673L22.156 22.3711L24.156 22.3764ZM24.1552 22.6741L26.1552 22.6788L26.1552 22.6784L24.1552 22.6741ZM24.1527 23.405L22.1527 23.396L22.1435 25.426L24.1734 25.4049L24.1527 23.405ZM24.359 23.4029L24.3397 21.403L24.3383 21.403L24.359 23.4029ZM25.1189 23.3976L25.129 25.3976L25.1313 25.3976L25.1189 23.3976ZM25.4474 23.3948L25.4266 21.3949L25.4261 21.395L25.4474 23.3948ZM25.9204 23.3918L25.9279 25.3918L25.9384 25.3918L25.949 25.3916L25.9204 23.3918ZM26.0681 23.3897L26.0676 21.3897L26.0535 21.3897L26.0395 21.3899L26.0681 23.3897ZM26.8633 23.6074L28.3344 22.2525L28.1929 22.0988L28.0226 21.9777L26.8633 23.6074ZM26.9998 24.1084L28.9579 24.5157L28.9982 24.3217L28.9997 24.1236L26.9998 24.1084ZM26.6638 24.5292L27.2147 26.4519L27.5383 26.3591L27.8137 26.1656L26.6638 24.5292ZM26.273 24.5793L26.2778 22.5793L26.2731 22.5793L26.273 24.5793ZM26.1302 24.5793L26.121 26.5793L26.13 26.5793L26.1302 24.5793ZM25.9766 24.5786L25.9857 22.5786L25.979 22.5786L25.9766 24.5786ZM25.8189 24.5784L25.8159 26.5784L25.8165 26.5784L25.8189 24.5784ZM25.32 24.577L25.3269 22.577L25.324 22.577L25.32 24.577ZM24.9819 24.5764L24.9783 26.5764L24.9786 26.5764L24.9819 24.5764ZM24.1527 24.5742L24.1595 22.5742L22.1061 22.5672L22.1532 24.6201L24.1527 24.5742ZM24.1545 24.6509L26.154 24.607L26.1539 24.605L24.1545 24.6509ZM24.1671 25.4432L22.1672 25.4649L22.1672 25.4698L24.1671 25.4432ZM24.1724 25.7386L26.1719 25.6937L26.1719 25.6926L24.1724 25.7386ZM24.1782 26.1639L22.1783 26.1802L22.1785 26.2028L22.1792 26.2255L24.1782 26.1639ZM24.1823 26.2968L26.1823 26.2959L26.1823 26.2656L26.1814 26.2353L24.1823 26.2968ZM24.0279 26.8036L25.2746 28.3674L25.3864 28.2783L25.4843 28.1742L24.0279 26.8036ZM23.4235 26.9997L23.1557 28.9817L23.2755 28.9979L23.3963 28.9995L23.4235 26.9997ZM22.8971 26.7327L21.0324 27.4558L21.209 27.9111L21.5754 28.2337L22.8971 26.7327ZM22.8389 26.3967L24.8389 26.4032L24.8389 26.3969L22.8389 26.3967ZM22.8389 26.274L20.8389 26.2616L20.8389 26.2738L22.8389 26.274ZM22.8397 26.142L24.8397 26.1544L24.8397 26.1453L22.8397 26.142ZM22.8399 26.0064L20.8399 26.0023L20.8399 26.0031L22.8399 26.0064ZM22.8415 25.5776L24.8415 25.5869L24.8415 25.583L22.8415 25.5776ZM22.8423 25.2869L20.8423 25.2821L20.8423 25.2825L22.8423 25.2869ZM22.8448 24.5742L24.8448 24.5835L24.8542 22.5461L22.8171 22.5744L22.8448 24.5742ZM22.7575 24.5754L22.7841 26.5752L22.7853 26.5752L22.7575 24.5754ZM21.8562 24.5841L21.8431 22.5841L21.8401 22.5841L21.8562 24.5841ZM21.5201 24.5878L21.5472 26.5876L21.5479 26.5876L21.5201 24.5878ZM21.0362 24.5918L21.0264 22.5918L21.0127 22.5919L20.999 22.5921L21.0362 24.5918ZM20.8851 24.5946L20.8857 26.5946L20.904 26.5946L20.9223 26.5942L20.8851 24.5946ZM20.1767 24.3943L18.7408 25.7865L18.856 25.9054L18.9893 26.0037L20.1767 24.3943ZM20.0018 23.8993L18.0409 23.5057L18.0122 23.6486L18.0046 23.7941L20.0018 23.8993ZM20.229 23.5399L19.3794 21.7294L19.0874 21.8664L18.8533 22.0883L20.229 23.5399ZM21.1231 23.3918L21.0937 25.3916L21.1045 25.3918L21.1154 25.3918L21.1231 23.3918ZM21.2728 23.3924L21.2824 21.3924L21.2806 21.3924L21.2728 23.3924ZM21.7429 23.3966L21.7209 25.3965L21.7302 25.3965L21.7429 23.3966ZM22.063 23.3984L22.0744 21.3985L22.0734 21.3985L22.063 23.3984ZM22.8448 23.405L22.8235 25.4049L24.8831 25.4269L24.8445 23.3675L22.8448 23.405ZM22.8434 23.33L20.8437 23.3659L20.8438 23.3675L22.8434 23.33ZM22.8333 22.5553L24.8332 22.5375L24.8332 22.5334L22.8333 22.5553ZM22.829 22.2663L20.8294 22.3031L20.8294 22.304L22.829 22.2663ZM22.8244 21.8504L24.8243 21.8371L24.8242 21.8186L24.8237 21.8001L22.8244 21.8504ZM22.8211 21.7205L20.8211 21.7213L20.8211 21.7461L20.8217 21.7709L22.8211 21.7205ZM23.0541 21.1116L22.0597 19.3763L21.836 19.5045L21.6522 19.6852L23.0541 21.1116ZM22.9699 22.8474C22.9215 22.8257 22.8199 22.774 22.7045 22.6759C22.5835 22.5729 22.4897 22.4552 22.4239 22.3421L25.8815 20.3308C25.5487 19.7587 25.078 19.4084 24.603 19.1959L22.9699 22.8474ZM22.1576 21.4769C22.1579 21.4804 22.1588 21.4957 22.1586 21.5302L26.1586 21.5429C26.1589 21.444 26.1569 21.3257 26.1478 21.196L22.1576 21.4769ZM22.1586 21.5364C22.1586 21.5985 22.1586 21.5985 22.1586 21.6618L26.1586 21.6622C26.1586 21.5988 26.1586 21.5988 26.1586 21.5367L22.1586 21.5364ZM22.1587 21.65C22.1584 21.6947 22.1581 21.7395 22.1578 21.7857L26.1578 21.8098C26.158 21.7636 26.1583 21.7189 26.1586 21.6741L22.1587 21.65ZM22.1578 21.7945C22.1577 21.8403 22.1577 21.8861 22.1576 21.9332L26.1576 21.9397C26.1577 21.8925 26.1577 21.8468 26.1578 21.801L22.1578 21.7945ZM22.1576 21.9325C22.1573 22.0762 22.1567 22.2203 22.156 22.3673L26.1559 22.3854C26.1566 22.2391 26.1573 22.09 26.1576 21.9405L22.1576 21.9325ZM22.156 22.3711C22.1557 22.4706 22.1555 22.5702 22.1553 22.6698L26.1552 22.6784C26.1555 22.5795 26.1557 22.4806 26.156 22.3816L22.156 22.3711ZM22.1553 22.6694C22.1547 22.9114 22.1538 23.1536 22.1527 23.396L26.1527 23.414C26.1538 23.1692 26.1547 22.9241 26.1552 22.6788L22.1553 22.6694ZM24.1734 25.4049C24.2415 25.4042 24.3096 25.4035 24.3798 25.4028L24.3383 21.403C24.2681 21.4037 24.2 21.4044 24.1319 21.4051L24.1734 25.4049ZM24.3783 25.4028C24.6271 25.4004 24.8769 25.3988 25.129 25.3976L25.1088 21.3976C24.8543 21.3989 24.5975 21.4005 24.3397 21.403L24.3783 25.4028ZM25.1313 25.3976C25.2437 25.3969 25.3562 25.3959 25.4688 25.3947L25.4261 21.395C25.3196 21.3961 25.2131 21.397 25.1066 21.3976L25.1313 25.3976ZM25.4682 25.3947C25.619 25.3932 25.7712 25.3924 25.9279 25.3918L25.9128 21.3919C25.7543 21.3925 25.5912 21.3932 25.4266 21.3949L25.4682 25.3947ZM25.949 25.3916C25.9977 25.3909 26.0464 25.3902 26.0966 25.3895L26.0395 21.3899C25.9893 21.3907 25.9405 21.3913 25.8918 21.392L25.949 25.3916ZM26.0685 25.3897C26.1615 25.3897 26.1088 25.3972 26.0041 25.371C25.9472 25.3567 25.8868 25.3358 25.8277 25.3081C25.7698 25.2809 25.728 25.2542 25.704 25.2371L28.0226 21.9777C27.3002 21.4638 26.6067 21.3896 26.0676 21.3897L26.0685 25.3897ZM25.3922 24.9623C25.1741 24.7255 25.0669 24.4572 25.024 24.248C24.9926 24.0954 25.0007 23.9794 24.9999 24.0931L28.9997 24.1236C29.0006 24.0082 29.067 23.0479 28.3344 22.2525L25.3922 24.9623ZM25.0417 23.701C25.1042 23.4005 25.2455 23.1759 25.3665 23.0361C25.4677 22.919 25.5502 22.8674 25.5139 22.8929L27.8137 26.1656C28.0361 26.0094 28.7524 25.5033 28.9579 24.5157L25.0417 23.701ZM26.113 22.6066C26.1111 22.6071 26.1237 22.6034 26.1465 22.5986C26.1708 22.5934 26.1994 22.5885 26.2303 22.5848C26.2898 22.5776 26.3233 22.5794 26.2778 22.5793L26.2681 26.5793C26.5578 26.58 26.8424 26.5586 27.2147 26.4519L26.113 22.6066ZM26.2731 22.5793C26.2024 22.5793 26.2024 22.5793 26.1303 22.5793L26.13 26.5793C26.2021 26.5793 26.2021 26.5793 26.2728 26.5793L26.2731 22.5793ZM26.1393 22.5793C26.0886 22.5791 26.038 22.5789 25.9857 22.5786L25.9674 26.5786C26.0196 26.5788 26.0703 26.579 26.121 26.5793L26.1393 22.5793ZM25.979 22.5786C25.901 22.5785 25.901 22.5785 25.8214 22.5784L25.8165 26.5784C25.8961 26.5785 25.8961 26.5785 25.9741 26.5786L25.979 22.5786ZM25.8219 22.5784C25.6578 22.5782 25.4934 22.5776 25.3269 22.577L25.3131 26.577C25.4792 26.5776 25.6474 26.5781 25.8159 26.5784L25.8219 22.5784ZM25.324 22.577C25.211 22.5768 25.0981 22.5766 24.9851 22.5764L24.9786 26.5764C25.0911 26.5766 25.2035 26.5768 25.316 26.577L25.324 22.577ZM24.9855 22.5764C24.7103 22.5759 24.435 22.5752 24.1595 22.5742L24.1458 26.5742C24.4232 26.5751 24.7007 26.5759 24.9783 26.5764L24.9855 22.5764ZM22.1532 24.6201C22.1538 24.6454 22.1544 24.6707 22.155 24.6968L26.1539 24.605C26.1533 24.579 26.1527 24.5536 26.1522 24.5283L22.1532 24.6201ZM22.1549 24.6948C22.1605 24.9496 22.1644 25.2061 22.1672 25.4649L26.1669 25.4214C26.164 25.1521 26.16 24.8803 26.154 24.607L22.1549 24.6948ZM22.1672 25.4698C22.1686 25.5747 22.1705 25.6796 22.173 25.7847L26.1719 25.6926C26.1698 25.6007 26.1681 25.5086 26.1669 25.4165L22.1672 25.4698ZM22.1729 25.7835C22.1758 25.9104 22.1772 26.0403 22.1783 26.1802L26.1782 26.1477C26.177 26.0039 26.1754 25.8504 26.1719 25.6937L22.1729 25.7835ZM22.1792 26.2255C22.1805 26.2693 22.1819 26.3132 22.1833 26.3584L26.1814 26.2353C26.18 26.1901 26.1786 26.1462 26.1773 26.1024L22.1792 26.2255ZM22.1823 26.2978C22.1824 26.3546 22.1817 26.3446 22.183 26.3214C22.1849 26.2905 22.1913 26.2065 22.2182 26.0954C22.2467 25.9774 22.2934 25.8486 22.364 25.7203C22.4333 25.5944 22.509 25.4992 22.5714 25.4329L25.4843 28.1742C25.7847 27.8551 26.0003 27.473 26.106 27.0358C26.1913 26.6835 26.1824 26.3555 26.1823 26.2959L22.1823 26.2978ZM22.7812 25.2397C22.7474 25.2666 22.8912 25.1425 23.1421 25.0617C23.3734 24.9873 23.5424 25.0011 23.4508 24.9999L23.3963 28.9995C23.5911 29.0022 23.9576 29.0013 24.3672 28.8695C24.7964 28.7314 25.0992 28.5073 25.2746 28.3674L22.7812 25.2397ZM23.6914 25.0177C23.7291 25.0228 23.7909 25.034 23.8679 25.0584C23.9473 25.0836 24.0241 25.1168 24.0947 25.1555C24.2206 25.2245 24.288 25.2926 24.2188 25.2317L21.5754 28.2337C21.6735 28.3201 21.8846 28.5056 22.1722 28.6632C22.4939 28.8395 22.8239 28.9369 23.1557 28.9817L23.6914 25.0177ZM24.7618 26.0096C24.7731 26.0386 24.8036 26.1243 24.8231 26.2434C24.8408 26.3517 24.8388 26.4266 24.8389 26.4032L20.8389 26.3902C20.8378 26.7109 20.8733 27.0454 21.0324 27.4558L24.7618 26.0096ZM24.8389 26.3969C24.8389 26.3564 24.8389 26.3159 24.8389 26.2742L20.8389 26.2738C20.8389 26.3155 20.8389 26.356 20.8389 26.3965L24.8389 26.3969ZM24.8388 26.2864C24.8391 26.2428 24.8394 26.1992 24.8397 26.1544L20.8397 26.1296C20.8395 26.1745 20.8392 26.218 20.8389 26.2616L24.8388 26.2864ZM24.8397 26.1453C24.8398 26.1005 24.8398 26.0558 24.8399 26.0097L20.8399 26.0031C20.8398 26.0492 20.8398 26.0939 20.8397 26.1387L24.8397 26.1453ZM24.8399 26.0105C24.8402 25.8706 24.8408 25.7301 24.8415 25.5869L20.8416 25.5683C20.8409 25.7109 20.8402 25.8564 20.8399 26.0023L24.8399 26.0105ZM24.8415 25.583C24.8418 25.4858 24.842 25.3886 24.8422 25.2914L20.8423 25.2825C20.842 25.3791 20.8418 25.4756 20.8415 25.5722L24.8415 25.583ZM24.8422 25.2918C24.8428 25.0559 24.8437 24.8198 24.8448 24.5835L20.8448 24.5649C20.8437 24.8038 20.8428 25.0428 20.8423 25.2821L24.8422 25.2918ZM22.8171 22.5744C22.7739 22.575 22.7739 22.575 22.7298 22.5756L22.7853 26.5752C22.8294 26.5746 22.8294 26.5746 22.8725 26.574L22.8171 22.5744ZM22.731 22.5756C22.4362 22.5795 22.1404 22.5822 21.8431 22.5841L21.8694 26.584C22.173 26.582 22.4781 26.5793 22.7841 26.5752L22.731 22.5756ZM21.8401 22.5841C21.7242 22.5851 21.6083 22.5864 21.4923 22.588L21.5479 26.5876C21.656 26.5861 21.7642 26.5849 21.8723 26.584L21.8401 22.5841ZM21.493 22.588C21.3407 22.59 21.1866 22.591 21.0264 22.5918L21.0461 26.5917C21.2086 26.5909 21.3769 26.5899 21.5472 26.5876L21.493 22.588ZM20.999 22.5921C20.9491 22.593 20.8993 22.594 20.8479 22.5949L20.9223 26.5942C20.9737 26.5933 21.0236 26.5923 21.0735 26.5914L20.999 22.5921ZM20.8845 22.5946C20.7659 22.5946 20.8587 22.5852 21.0068 22.6236C21.09 22.6452 21.1701 22.6758 21.2419 22.7119C21.3097 22.746 21.3518 22.7759 21.3642 22.785L18.9893 26.0037C19.2633 26.2058 19.5924 26.389 20.0012 26.4952C20.3683 26.5905 20.698 26.5946 20.8857 26.5946L20.8845 22.5946ZM21.6127 23.0022C21.6946 23.0867 21.837 23.2644 21.9267 23.5341C22.01 23.785 22.0004 23.978 21.999 24.0045L18.0046 23.7941C17.9925 24.0239 17.9949 24.3866 18.1307 24.7953C18.2727 25.2228 18.508 25.5464 18.7408 25.7865L21.6127 23.0022ZM21.9627 24.2929C21.9281 24.4654 21.8547 24.6517 21.7404 24.8215C21.6496 24.9564 21.5649 25.0294 21.6048 24.9916L18.8533 22.0883C18.6329 22.2972 18.1948 22.739 18.0409 23.5057L21.9627 24.2929ZM21.0787 25.3505C21.0725 25.3534 21.0633 25.3574 21.0512 25.362C21.039 25.3667 21.0254 25.3713 21.0106 25.3756C20.9958 25.3799 20.9816 25.3835 20.9684 25.3863C20.9553 25.389 20.9447 25.3907 20.9374 25.3918C20.9232 25.3937 20.9241 25.3927 20.9499 25.3918C20.9628 25.3914 20.9805 25.391 21.0048 25.3909C21.0293 25.3909 21.058 25.3911 21.0937 25.3916L21.1525 21.3921C20.7431 21.386 20.1099 21.3866 19.3794 21.7294L21.0787 25.3505ZM21.1154 25.3918C21.1648 25.392 21.2142 25.3922 21.2651 25.3924L21.2806 21.3924C21.2296 21.3922 21.1802 21.392 21.1308 21.3919L21.1154 25.3918ZM21.2633 25.3924C21.4129 25.3931 21.5636 25.3947 21.7209 25.3965L21.7649 21.3967C21.6089 21.395 21.4462 21.3932 21.2824 21.3924L21.2633 25.3924ZM21.7302 25.3965C21.8377 25.3972 21.9452 25.3978 22.0527 25.3984L22.0734 21.3985C21.9675 21.3979 21.8615 21.3973 21.7556 21.3966L21.7302 25.3965ZM22.0517 25.3984C22.308 25.3999 22.5651 25.4021 22.8235 25.4049L22.8661 21.4051C22.6033 21.4023 22.3393 21.4 22.0744 21.3985L22.0517 25.3984ZM24.8445 23.3675C24.844 23.3427 24.8435 23.318 24.843 23.2925L20.8438 23.3675C20.8442 23.393 20.8447 23.4178 20.8452 23.4426L24.8445 23.3675ZM24.8431 23.2941C24.8386 23.0434 24.8355 22.7914 24.8332 22.5375L20.8334 22.573C20.8357 22.8356 20.8389 23.1001 20.8437 23.3659L24.8431 23.2941ZM24.8332 22.5334C24.8321 22.4319 24.8306 22.3303 24.8287 22.2287L20.8294 22.304C20.8311 22.395 20.8324 22.486 20.8334 22.5771L24.8332 22.5334ZM24.8287 22.2296C24.8264 22.1032 24.8252 21.9742 24.8243 21.8371L20.8244 21.8637C20.8253 22.004 20.8266 22.1522 20.8294 22.3031L24.8287 22.2296ZM24.8237 21.8001C24.8221 21.7358 24.8221 21.7358 24.8205 21.6701L20.8217 21.7709C20.8234 21.8365 20.8234 21.8365 20.825 21.9008L24.8237 21.8001ZM24.8211 21.7197C24.8211 21.638 24.8324 21.8129 24.7522 22.046C24.6579 22.32 24.5092 22.4857 24.4559 22.538L21.6522 19.6852C21.3948 19.9381 21.1295 20.2804 20.9698 20.7447C20.8241 21.1681 20.821 21.5471 20.8211 21.7213L24.8211 21.7197ZM24.0485 22.8469C23.974 22.8896 23.8898 22.9263 23.7992 22.9532C23.7097 22.9799 23.6312 22.9919 23.5718 22.9969C23.4732 23.0051 23.4253 22.9922 23.5407 23.0065L24.0323 19.0368C23.7054 18.9963 22.9002 18.8947 22.0597 19.3763L24.0485 22.8469Z" fill="white" mask="url(#path-2-inside-2_429_295)"/>
</svg>
