<svg width="22" height="20" viewBox="0 0 22 20" fill="none" xmlns="http://www.w3.org/2000/svg">
<path fill-rule="evenodd" clip-rule="evenodd" d="M19.1399 2H17.9699V0H15.6299V2H6.26992V0H3.92992V2H2.75992C1.46122 2 0.419922 2.9 0.419922 4V18C0.419922 19.1 1.46122 20 2.75992 20H19.1399C20.4269 20 21.4799 19.1 21.4799 18V4C21.4799 2.9 20.4269 2 19.1399 2ZM19.1399 18H2.75992V7H19.1399V18ZM4.51492 11C4.51492 9.62 5.82532 8.5 7.43992 8.5C9.05452 8.5 10.3649 9.62 10.3649 11C10.3649 12.38 9.05452 13.5 7.43992 13.5C5.82532 13.5 4.51492 12.38 4.51492 11Z" fill="#CBCBCB"/>
</svg>
