<svg width="112" height="112" viewBox="0 0 112 112" fill="none" xmlns="http://www.w3.org/2000/svg">
<mask id="mask0_620_2839" style="mask-type:luminance" maskUnits="userSpaceOnUse" x="0" y="0" width="112" height="112">
<path d="M0 0H112V112H0V0Z" fill="white"/>
</mask>
<g mask="url(#mask0_620_2839)">
<path d="M55.6037 12.2269C73.4377 12.0256 88.0809 26.3419 88.2823 44.1758C88.4837 62.0097 74.1674 76.653 56.3335 76.8544C38.4995 77.0557 23.8563 62.7394 23.6549 44.9055C23.4535 27.0716 37.7698 12.4283 55.6037 12.2269Z" fill="#F44336"/>
<path d="M56.1588 69.612L56.4439 94.861C56.4439 94.861 61.104 97.9336 63.6879 94.2791C66.2719 90.6246 82.4683 63.6075 86.2565 55.8961C88.4884 51.3525 75.5763 40.0153 75.5763 40.0153L56.1737 59.861" fill="#F44336"/>
<path d="M56.4078 69.6101L56.6929 94.859C56.6929 94.859 52.1034 98.0361 49.4376 94.4409C46.7718 90.8457 32.5287 69.4227 26.0081 56.5772C23.717 52.0637 36.327 40.4593 36.327 40.4593L56.1728 59.8619" fill="#F44336"/>
<path d="M56.3949 82.3718C60.8465 82.3216 64.5016 85.895 64.5518 90.3466C64.6021 94.7981 61.0286 98.4532 56.5771 98.5035C52.1255 98.5537 48.4704 94.9802 48.4202 90.5287C48.3699 86.0772 51.9434 82.4221 56.3949 82.3718Z" fill="#F44336"/>
<path d="M55.6539 16.6274C71.0044 16.454 83.6086 28.7768 83.7819 44.1273C83.9553 59.4779 71.6325 72.0821 56.282 72.2554C40.9314 72.4287 28.3272 60.106 28.1539 44.7554C27.9806 29.4049 40.3033 16.8007 55.6539 16.6274Z" fill="#FFE6E3"/>
<path d="M42.1894 50.1761L62.5098 29.4735C63.8065 28.1523 65.3736 27.5844 66.0069 28.206L72.2568 34.3405C72.8901 34.9621 72.3514 36.5395 71.0547 37.8606L50.7343 58.5632C49.4376 59.8844 47.8706 60.4523 47.2373 59.8307L40.9873 53.6962C40.354 53.0746 40.8927 51.4972 42.1894 50.1761Z" fill="#F44336"/>
<path d="M49.9588 29.7683L70.32 50.4308C71.6194 51.7494 72.1611 53.3257 71.5291 53.9485L65.2913 60.0954C64.6592 60.7182 63.091 60.1534 61.7917 58.8348L41.4305 38.1723C40.1311 36.8538 39.5894 35.2775 40.2215 34.6546L46.4592 28.5078C47.0913 27.8849 48.6595 28.4498 49.9588 29.7683Z" fill="#F44336"/>
<mask id="mask1_620_2839" style="mask-type:luminance" maskUnits="userSpaceOnUse" x="61" y="-4" width="49" height="49">
<path d="M87.5703 -3.30078L109.734 18.863L83.9971 44.6L61.8333 22.4362L87.5703 -3.30078Z" fill="white"/>
</mask>
<g mask="url(#mask1_620_2839)">
<path d="M93.7314 9.93359C93.7314 9.93359 91.602 12.0631 89.954 13.7111" stroke="#FF1600" stroke-width="4" stroke-linecap="round"/>
<path d="M97.5361 20.3379C97.5361 20.3379 94.9605 20.7738 92.9672 21.1111" stroke="#FF1600" stroke-width="4" stroke-linecap="round"/>
<path d="M82.8447 5.64453C82.8447 5.64453 82.4088 8.22018 82.0715 10.2135" stroke="#FF1600" stroke-width="4" stroke-linecap="round"/>
</g>
</g>
</svg>
