<svg width="24" height="24" viewBox="0 0 24 24" fill="none" xmlns="http://www.w3.org/2000/svg">
<path d="M18 8C18 8.53043 17.7893 9.03914 17.4142 9.41421C17.0391 9.78929 16.5304 10 16 10C15.4696 10 14.9609 9.78929 14.5858 9.41421C14.2107 9.03914 14 8.53043 14 8C14 7.46957 14.2107 6.96086 14.5858 6.58579C14.9609 6.21071 15.4696 6 16 6C16.5304 6 17.0391 6.21071 17.4142 6.58579C17.7893 6.96086 18 7.46957 18 8Z" fill="#555454"/>
<path fill-rule="evenodd" clip-rule="evenodd" d="M11.943 1.24905H12.057C14.366 1.24905 16.175 1.24905 17.587 1.43905C19.031 1.63305 20.171 2.03905 21.066 2.93305C21.961 3.82805 22.366 4.96805 22.56 6.41305C22.75 7.82405 22.75 9.63305 22.75 11.942V12.03C22.75 13.939 22.75 15.501 22.646 16.773C22.542 18.053 22.329 19.12 21.851 20.008C21.6417 20.3987 21.38 20.751 21.066 21.065C20.171 21.96 19.031 22.365 17.586 22.559C16.175 22.749 14.366 22.749 12.057 22.749H11.943C9.634 22.749 7.825 22.749 6.413 22.559C4.969 22.365 3.829 21.959 2.934 21.065C2.141 20.272 1.731 19.285 1.514 18.059C1.299 16.856 1.26 15.359 1.252 13.501C1.25067 13.0277 1.25 12.527 1.25 11.999V11.941C1.25 9.63205 1.25 7.82305 1.44 6.41105C1.634 4.96705 2.04 3.82705 2.934 2.93205C3.829 2.03705 4.969 1.63205 6.414 1.43805C7.825 1.24805 9.634 1.24805 11.943 1.24805M6.613 2.92405C5.335 3.09605 4.564 3.42405 3.995 3.99305C3.425 4.56305 3.098 5.33305 2.926 6.61205C2.752 7.91205 2.75 9.62005 2.75 11.998V12.842L3.751 11.966C4.19007 11.5817 4.75882 11.3786 5.34203 11.3979C5.92524 11.4172 6.47931 11.6575 6.892 12.07L11.182 16.36C11.5149 16.6929 11.9546 16.8976 12.4235 16.9382C12.8925 16.9788 13.3608 16.8527 13.746 16.582L14.044 16.372C14.5997 15.9816 15.2714 15.7912 15.9493 15.8321C16.6273 15.873 17.2713 16.1426 17.776 16.597L20.606 19.144C20.892 18.546 21.061 17.76 21.151 16.651C21.249 15.446 21.25 13.944 21.25 11.998C21.25 9.62005 21.248 7.91205 21.074 6.61205C20.902 5.33305 20.574 4.56205 20.005 3.99205C19.435 3.42305 18.665 3.09605 17.386 2.92405C16.086 2.75005 14.378 2.74805 12 2.74805C9.622 2.74805 7.913 2.75005 6.613 2.92405Z" fill="#555454"/>
</svg>
