<svg width="44" height="52" viewBox="0 0 44 52" fill="none" xmlns="http://www.w3.org/2000/svg">
<path d="M22 2C33.0457 2 42 10.8311 42 21.7246C41.9999 30.3598 36.3728 37.6974 28.5381 40.3691C26.0802 42.4888 24.6672 44.9397 24.667 46.0508C24.667 49.3382 20.0003 53.2832 18.667 45.3936C18.667 43.6172 16.8407 41.8418 14.6289 40.0654C7.23128 37.1713 2.0001 30.0507 2 21.7246C2 10.8311 10.9543 2 22 2ZM22 16.8232C19.2554 16.8232 17.0303 19.0178 17.0303 21.7246C17.0304 24.4313 19.2555 26.625 22 26.625C24.7445 26.625 26.9696 24.4313 26.9697 21.7246C26.9697 19.0178 24.7446 16.8232 22 16.8232Z" fill="#47C1E2"/>
<path d="M42 21.7246L43.5 21.7246V21.7246H42ZM28.5381 40.3691L28.0539 38.9494L27.7787 39.0433L27.5585 39.2332L28.5381 40.3691ZM24.667 46.0508L23.167 46.0505V46.0508H24.667ZM18.667 45.3936L17.167 45.3936L17.167 45.5194L17.188 45.6435L18.667 45.3936ZM14.6289 40.0654L15.5682 38.8959L15.3892 38.7522L15.1754 38.6685L14.6289 40.0654ZM2 21.7246L0.5 21.7246L0.5 21.7246L2 21.7246ZM17.0303 21.7246L15.5303 21.7246L15.5303 21.7247L17.0303 21.7246ZM26.9697 21.7246L28.4697 21.7247V21.7246H26.9697ZM22 2V3.5C32.2369 3.5 40.5 11.6791 40.5 21.7246H42H43.5C43.5 9.98318 33.8545 0.5 22 0.5V2ZM42 21.7246L40.5 21.7246C40.4999 29.6873 35.3107 36.4748 28.0539 38.9494L28.5381 40.3691L29.0222 41.7889C37.435 38.92 43.4999 31.0322 43.5 21.7246L42 21.7246ZM28.5381 40.3691L27.5585 39.2332C26.2257 40.3826 25.1633 41.6318 24.4231 42.7709C24.0532 43.3403 23.7513 43.9012 23.5373 44.426C23.3331 44.9269 23.1671 45.4952 23.167 46.0505L24.667 46.0508L26.167 46.0511C26.167 46.0639 26.166 46.0274 26.1895 45.9313C26.2121 45.839 26.2517 45.7147 26.3153 45.5587C26.4431 45.2453 26.6481 44.8527 26.9387 44.4054C27.5196 43.5115 28.3926 42.4754 29.5177 41.5051L28.5381 40.3691ZM24.667 46.0508H23.167C23.167 46.5383 22.9854 47.1227 22.6574 47.63C22.3183 48.1544 21.9467 48.4118 21.7252 48.4801C21.6367 48.5074 21.5271 48.5535 21.2775 48.2786C20.9351 47.9016 20.4602 47.0025 20.146 45.1436L18.667 45.3936L17.188 45.6435C17.5405 47.7294 18.1489 49.2959 19.0565 50.2954C20.0569 51.397 21.3639 51.7307 22.6088 51.347C23.7206 51.0043 24.599 50.1522 25.1766 49.2589C25.7653 48.3484 26.167 47.2069 26.167 46.0508H24.667ZM18.667 45.3936L20.167 45.3935C20.167 43.9915 19.454 42.7677 18.6341 41.7745C17.7993 40.7634 16.6904 39.7973 15.5682 38.8959L14.6289 40.0654L13.6896 41.2349C14.7792 42.11 15.6893 42.9197 16.3206 43.6845C16.9668 44.4672 17.167 45.0193 17.167 45.3936L18.667 45.3936ZM14.6289 40.0654L15.1754 38.6685C8.32381 35.988 3.50009 29.4025 3.5 21.7246L2 21.7246L0.5 21.7246C0.50011 30.6988 6.13875 38.3546 14.0824 41.4623L14.6289 40.0654ZM2 21.7246H3.5C3.5 11.6791 11.7631 3.5 22 3.5V2V0.5C10.1455 0.5 0.5 9.98318 0.5 21.7246H2ZM22 16.8232V15.3232C18.4466 15.3232 15.5303 18.1699 15.5303 21.7246H17.0303H18.5303C18.5303 19.8658 20.0642 18.3232 22 18.3232V16.8232ZM17.0303 21.7246L15.5303 21.7247C15.5304 25.2795 18.447 28.125 22 28.125V26.625V25.125C20.064 25.125 18.5304 23.583 18.5303 21.7245L17.0303 21.7246ZM22 26.625V28.125C25.553 28.125 28.4696 25.2795 28.4697 21.7247L26.9697 21.7246L25.4697 21.7245C25.4696 23.583 23.936 25.125 22 25.125V26.625ZM26.9697 21.7246H28.4697C28.4697 18.1699 25.5534 15.3232 22 15.3232V16.8232V18.3232C23.9358 18.3232 25.4697 19.8658 25.4697 21.7246H26.9697Z" fill="#1D3C44" fill-opacity="0.45"/>
</svg>
