<svg width="12" height="14" viewBox="0 0 12 14" fill="none" xmlns="http://www.w3.org/2000/svg">
<path fill-rule="evenodd" clip-rule="evenodd" d="M8.07247 11.1919C10.3583 10.413 12 8.27204 12 5.75294C12 2.57568 9.38837 0 6.16671 0C2.94505 0 0.333374 2.57568 0.333374 5.75294C0.333374 8.182 1.85984 10.2594 4.01834 11.1032C4.66288 11.6209 5.19446 12.1387 5.19446 12.6565C5.58335 14.9577 6.94446 13.8071 6.94446 12.8482C6.94446 12.5244 7.35619 11.8099 8.07247 11.1919ZM6.16671 7.1824C5.3662 7.1824 4.71727 6.54241 4.71727 5.75294C4.71727 4.96347 5.3662 4.32347 6.16671 4.32347C6.96721 4.32347 7.61615 4.96347 7.61615 5.75294C7.61615 6.54241 6.96721 7.1824 6.16671 7.1824Z" fill="#47C1E2"/>
</svg>
