<svg width="72" height="55" viewBox="0 0 72 55" fill="none" xmlns="http://www.w3.org/2000/svg">
<rect x="0.5" y="1" width="71" height="53" rx="17.5" fill="white"/>
<rect x="0.5" y="1" width="71" height="53" rx="17.5" stroke="#CBCBCB"/>
<path d="M26.3112 46.9254H15.9591C13.3478 47.3222 7.39767 46.3303 4.48787 39.1886C3.32207 35.2209 3.50856 26.6309 13.5809 24.0124C13.3944 21.235 14.4762 14.7877 20.2958 11.2169C24.2595 8.53868 37.0791 4.53606 43.9059 13.7013C48.569 13.3045 54.9894 15.5613 56.1086 24.0124C61.0328 25.0836 63.4763 26.6409 64.0825 27.2857C73.2595 36.8079 64.0825 46.0327 59.1862 46.4791H51.2123" stroke="#CBCBCB"/>
<path d="M23.7891 20.4492C23.7891 20.6484 23.7168 20.8184 23.5723 20.959C23.4316 21.0996 23.2598 21.1699 23.0566 21.1699C22.5332 21.1699 22.2715 20.9297 22.2715 20.4492C22.2715 20.0273 22.5215 19.8164 23.0215 19.8164C23.5332 19.8164 23.7891 20.0273 23.7891 20.4492ZM26.7715 23.8301C26.7715 24.6543 26.5371 25.3281 26.0684 25.8516C25.5801 26.3945 24.9297 26.666 24.1172 26.666H22.4941C21.7715 26.666 21.1641 26.3906 20.6719 25.8398C20.1953 25.3086 19.957 24.6777 19.957 23.9473V21.7441H20.9941V24.0645C20.9941 24.5098 21.168 24.8828 21.5156 25.1836C21.8477 25.4688 22.2402 25.6113 22.6934 25.6113H24.0527C24.5098 25.6113 24.9004 25.4668 25.2246 25.1777C25.5527 24.8887 25.7168 24.5176 25.7168 24.0645V20.6895H26.7715V23.8301ZM32.8945 22.623C32.8945 23.0449 32.7363 23.3848 32.4199 23.6426C32.127 23.8809 31.7656 24 31.3359 24H28.0664L27.9199 22.9453H31.2656C31.6562 22.9453 31.8516 22.8086 31.8516 22.5352C31.8516 22.3945 31.7988 22.2676 31.6934 22.1543L29.3203 19.6289L30.0293 18.9141L32.4023 21.4277C32.7305 21.7754 32.8945 22.1738 32.8945 22.623ZM37.7168 24.1348C37.7168 24.8379 37.4512 25.4355 36.9199 25.9277C36.3926 26.4199 35.7754 26.666 35.0684 26.666H33.7031L33.5684 25.6113H34.8984C35.3984 25.6113 35.8125 25.4668 36.1406 25.1777C36.4688 24.8887 36.6426 24.4961 36.6621 24C35.7832 24 35.1445 23.8828 34.7461 23.6484C34.2148 23.3359 33.9492 22.7734 33.9492 21.9609C33.9492 21.0781 34.1582 20.459 34.5762 20.1035C34.834 19.8848 35.2637 19.7754 35.8652 19.7754C36.666 19.7754 37.2012 20.1113 37.4707 20.7832C37.6348 21.2012 37.7168 21.877 37.7168 22.8105V24.1348ZM36.6621 22.9453V21.8613C36.6621 21.1738 36.3867 20.8301 35.8359 20.8301C35.5 20.8301 35.2734 20.9434 35.1562 21.1699C35.0742 21.334 35.0332 21.6055 35.0332 21.9844C35.0332 22.4297 35.2109 22.7148 35.5664 22.8398C35.7578 22.9102 36.123 22.9453 36.6621 22.9453ZM42.7383 17.877C42.7383 18.084 42.668 18.2598 42.5273 18.4043C42.3867 18.5449 42.2129 18.6152 42.0059 18.6152C41.4668 18.6152 41.1973 18.3691 41.1973 17.877C41.1973 17.4629 41.4551 17.2559 41.9707 17.2559C42.4824 17.2559 42.7383 17.4629 42.7383 17.877ZM43.9219 24C43.3672 23.9922 42.9902 23.8262 42.791 23.502C42.791 24.3848 42.5723 25.1172 42.1348 25.6992C41.6543 26.3438 40.9844 26.666 40.125 26.666H38.7598L38.5898 25.6113H40.043C40.4805 25.6113 40.8652 25.4648 41.1973 25.1719C41.5449 24.8672 41.7188 24.498 41.7188 24.0645V20.6895H42.7734V22.207C42.7734 22.6992 43.1562 22.9453 43.9219 22.9453V24ZM47.1035 17.5664C47.1035 17.7695 47.0293 17.9434 46.8809 18.0879C46.7363 18.2285 46.5625 18.2988 46.3594 18.2988C45.8438 18.2988 45.5859 18.0547 45.5859 17.5664C45.5859 17.1484 45.834 16.9395 46.3301 16.9395C46.8457 16.9395 47.1035 17.1484 47.1035 17.5664ZM48.4336 22.3359C48.457 22.7891 48.291 23.1836 47.9355 23.5195C47.5879 23.8398 47.1855 24 46.7285 24H43.5645V22.9453H46.7402C47.127 22.9453 47.3203 22.6836 47.3203 22.1602C46.7734 22.1562 46.1543 22.123 45.4629 22.0605C44.8809 21.8457 44.5898 21.3672 44.5898 20.625C44.5898 20.1133 44.75 19.7012 45.0703 19.3887C45.3906 19.0723 45.8066 18.9141 46.3184 18.9141C46.7363 18.9141 47.1191 19.0254 47.4668 19.248C48.0254 19.5996 48.3262 20.1895 48.3691 21.0176L48.4336 22.3359ZM47.2559 21.1641C47.2285 20.3867 46.8984 19.998 46.2656 19.998C45.8008 19.998 45.5684 20.1836 45.5684 20.5547C45.5684 20.8516 45.6562 21.0352 45.832 21.1055C45.9062 21.1367 46.125 21.1543 46.4883 21.1582L47.2559 21.1641ZM51.3047 24H50.2793V17.2383H51.3047V24ZM14.8301 30.9316C14.8301 31.1113 14.7637 31.2598 14.6309 31.377C14.502 31.4941 14.3457 31.5527 14.1621 31.5527C13.6621 31.5527 13.4121 31.3457 13.4121 30.9316C13.4121 30.5449 13.6426 30.3516 14.1035 30.3516C14.5879 30.3516 14.8301 30.5449 14.8301 30.9316ZM12.7969 30.9316C12.7969 31.1113 12.7305 31.2598 12.5977 31.377C12.4688 31.4941 12.3145 31.5527 12.1348 31.5527C11.6348 31.5527 11.3848 31.3457 11.3848 30.9316C11.3848 30.5449 11.6113 30.3516 12.0645 30.3516C12.5527 30.3516 12.7969 30.5449 12.7969 30.9316ZM18.5391 36C17.7031 36 17.1445 35.8633 16.8633 35.5898C16.5039 35.8633 16.1641 36 15.8438 36H10.2891C9.85156 36 9.48633 35.8203 9.19336 35.4609C8.91992 35.125 8.7832 34.7324 8.7832 34.2832V32.6895H9.83789V34.1367C9.83789 34.4375 9.89648 34.6484 10.0137 34.7695C10.1309 34.8867 10.3359 34.9453 10.6289 34.9453H15.5332C15.8262 34.9453 16.0273 34.8867 16.1367 34.7695C16.25 34.6484 16.3066 34.4375 16.3066 34.1367V32.6895H17.3789V34.1367C17.3789 34.6758 17.7656 34.9453 18.5391 34.9453V36ZM26.4961 34.3066C26.4961 34.8301 26.377 35.252 26.1387 35.5723C25.873 35.9355 25.4863 36.1172 24.9785 36.1172C24.4824 36.1172 24.0078 35.8809 23.5547 35.4082C23.1523 35.873 22.7246 36.1055 22.2715 36.1055C21.7949 36.1055 21.3164 35.8281 20.8359 35.2734C20.4141 35.7578 19.9551 36 19.459 36H18.1172V34.9453H19.3828C19.8711 34.9453 20.1152 34.6836 20.1152 34.1602V32.6895H21.1523V34.2422C21.1523 34.4922 21.2422 34.6973 21.4219 34.8574C21.6016 35.0176 21.8184 35.0977 22.0723 35.0977C22.5527 35.0977 22.793 34.8789 22.793 34.4414V32.6895H23.8184V34.2422C23.8184 34.4883 23.9062 34.6934 24.082 34.8574C24.2617 35.0176 24.4766 35.0977 24.7266 35.0977C25.2188 35.0977 25.4648 34.8789 25.4648 34.4414V32.6895H26.4961V34.3066ZM32.2676 36H31.5703C31.5703 36.7734 31.3105 37.4102 30.791 37.9102C30.2754 38.4141 29.6289 38.666 28.8516 38.666H27.4922L27.3457 37.6113H28.6758C29.1758 37.6113 29.5918 37.4668 29.9238 37.1777C30.2559 36.8887 30.4316 36.4961 30.4512 36C29.5801 36 28.9395 35.8809 28.5293 35.6426C27.9941 35.3301 27.7266 34.7695 27.7266 33.9609C27.7266 33.0781 27.9395 32.459 28.3652 32.1035C28.6113 31.8926 29.0273 31.7871 29.6133 31.7871C30.4531 31.7871 31.0156 32.1348 31.3008 32.8301C31.4648 33.2363 31.5547 33.9414 31.5703 34.9453H32.2676V36ZM30.4863 34.9453V33.9434C30.4863 33.6504 30.416 33.3984 30.2754 33.1875C30.1152 32.9492 29.8945 32.8301 29.6133 32.8301C29.2773 32.8301 29.0508 32.9434 28.9336 33.1699C28.8516 33.334 28.8105 33.6055 28.8105 33.9844C28.8105 34.4297 28.9961 34.7148 29.3672 34.8398C29.5664 34.9102 29.9395 34.9453 30.4863 34.9453ZM36.6621 36C36.2324 36.0039 35.9102 35.9863 35.6953 35.9473C35.5273 35.8809 35.3496 35.7617 35.1621 35.5898C34.8262 35.8633 34.4922 36 34.1602 36H31.8867V34.9453H33.8379C34.1309 34.9453 34.334 34.8867 34.4473 34.7695C34.5605 34.6484 34.6172 34.4375 34.6172 34.1367V32.6895H35.6719V34.1367C35.6719 34.4844 35.7539 34.7129 35.918 34.8223C36.043 34.9043 36.291 34.9453 36.6621 34.9453V36ZM35.7246 38.0098C35.7246 38.1895 35.6602 38.3379 35.5312 38.4551C35.4023 38.5723 35.248 38.6309 35.0684 38.6309C34.8691 38.6309 34.6992 38.5762 34.5586 38.4668C34.4023 38.3496 34.3242 38.1973 34.3242 38.0098C34.3242 37.623 34.5488 37.4297 34.998 37.4297C35.4824 37.4297 35.7246 37.623 35.7246 38.0098ZM33.7031 38.0098C33.7031 38.1895 33.6387 38.3379 33.5098 38.4551C33.3809 38.5723 33.2266 38.6309 33.0469 38.6309C32.8477 38.6309 32.6777 38.5762 32.5371 38.4668C32.3809 38.3496 32.3027 38.1973 32.3027 38.0098C32.3027 37.623 32.5273 37.4297 32.9766 37.4297C33.4609 37.4297 33.7031 37.623 33.7031 38.0098ZM40.0957 34.2832C40.0957 34.7402 39.9629 35.1348 39.6973 35.4668C39.4082 35.8223 39.041 36 38.5957 36H36.3398V34.9453H38.2676C38.5605 34.9453 38.7617 34.8867 38.8711 34.7695C38.9844 34.6484 39.041 34.4375 39.041 34.1367V32.6895H40.0957V34.2832ZM39.9668 37.8398C39.9668 38.2148 39.7402 38.4023 39.2871 38.4023C38.7988 38.4023 38.5547 38.2148 38.5547 37.8398C38.5547 37.6523 38.6172 37.4961 38.7422 37.3711C38.8711 37.25 39.0293 37.1895 39.2168 37.1895C39.7168 37.1895 39.9668 37.4062 39.9668 37.8398ZM37.9453 37.8398C37.9453 38.2148 37.7188 38.4023 37.2656 38.4023C36.7773 38.4023 36.5332 38.2148 36.5332 37.8398C36.5332 37.6523 36.5957 37.4961 36.7207 37.3711C36.8496 37.25 37.0078 37.1895 37.1953 37.1895C37.6953 37.1895 37.9453 37.4062 37.9453 37.8398ZM38.9121 39.3281C38.9121 39.7109 38.6875 39.9023 38.2383 39.9023C37.7461 39.9023 37.5 39.7109 37.5 39.3281C37.5 38.8984 37.7188 38.6836 38.1562 38.6836C38.3594 38.6836 38.5332 38.7383 38.6777 38.8477C38.834 38.9688 38.9121 39.1289 38.9121 39.3281ZM51.8086 36C51.2422 36 50.8477 35.834 50.625 35.502C50.625 36.3848 50.4082 37.1172 49.9746 37.6992C49.4902 38.3438 48.8184 38.666 47.959 38.666H46.3301C45.6074 38.666 45 38.3906 44.5078 37.8398C44.0352 37.3086 43.7988 36.6777 43.7988 35.9473V33.7441H44.8301V36.0645C44.8301 36.5176 45.002 36.8926 45.3457 37.1895C45.6738 37.4707 46.0684 37.6113 46.5293 37.6113H47.8945C48.3516 37.6113 48.7383 37.4688 49.0547 37.1836C49.3867 36.8906 49.5527 36.5176 49.5527 36.0645V29.2383H50.6074V34.207C50.6074 34.6914 51.0078 34.9375 51.8086 34.9453V36ZM55.1367 34.2832C55.1367 34.7402 55.002 35.1348 54.7324 35.4668C54.4434 35.8223 54.0762 36 53.6309 36H51.375V34.9453H53.3027C53.5957 34.9453 53.7988 34.8867 53.9121 34.7695C54.0254 34.6484 54.082 34.4375 54.082 34.1367V32.6895H55.1367V34.2832ZM54.9551 38.0215C54.9551 38.2012 54.8887 38.3496 54.7559 38.4668C54.627 38.584 54.4707 38.6426 54.2871 38.6426C54.0918 38.6426 53.9238 38.5898 53.7832 38.4844C53.6309 38.3672 53.5547 38.2129 53.5547 38.0215C53.5547 37.6309 53.7773 37.4355 54.2227 37.4355C54.7109 37.4355 54.9551 37.6309 54.9551 38.0215ZM52.9336 38.0215C52.9336 38.2012 52.8672 38.3496 52.7344 38.4668C52.6055 38.584 52.4492 38.6426 52.2656 38.6426C52.0703 38.6426 51.9023 38.5898 51.7617 38.4844C51.6094 38.3672 51.5332 38.2129 51.5332 38.0215C51.5332 37.6309 51.7559 37.4355 52.2012 37.4355C52.6895 37.4355 52.9336 37.6309 52.9336 38.0215ZM58.5527 36C57.6621 36 57.0352 35.8281 56.6719 35.4844C56.4297 35.2617 56.3086 34.8965 56.3086 34.3887V29.4023H57.3633V33.9258C57.3633 34.4141 57.4453 34.7129 57.6094 34.8223C57.7109 34.8887 58.0254 34.9297 58.5527 34.9453V36ZM61.6816 29.5664C61.6816 29.7695 61.6074 29.9434 61.459 30.0879C61.3145 30.2285 61.1406 30.2988 60.9375 30.2988C60.4219 30.2988 60.1641 30.0547 60.1641 29.5664C60.1641 29.1484 60.4121 28.9395 60.9082 28.9395C61.4238 28.9395 61.6816 29.1484 61.6816 29.5664ZM63.0117 34.3359C63.0352 34.7891 62.8691 35.1836 62.5137 35.5195C62.166 35.8398 61.7637 36 61.3066 36H58.1426V34.9453H61.3184C61.7051 34.9453 61.8984 34.6836 61.8984 34.1602C61.3516 34.1562 60.7324 34.123 60.041 34.0605C59.459 33.8457 59.168 33.3672 59.168 32.625C59.168 32.1133 59.3281 31.7012 59.6484 31.3887C59.9688 31.0723 60.3848 30.9141 60.8965 30.9141C61.3145 30.9141 61.6973 31.0254 62.0449 31.248C62.6035 31.5996 62.9043 32.1895 62.9473 33.0176L63.0117 34.3359ZM61.834 33.1641C61.8066 32.3867 61.4766 31.998 60.8438 31.998C60.3789 31.998 60.1465 32.1836 60.1465 32.5547C60.1465 32.8516 60.2344 33.0352 60.4102 33.1055C60.4844 33.1367 60.7031 33.1543 61.0664 33.1582L61.834 33.1641Z" fill="#CBCBCB"/>
<path d="M33.5068 45.8306L36.2237 43.5645C36.9629 42.948 38.0371 42.948 38.7763 43.5645L41.4932 45.8306C42.0037 46.2563 41.7026 47.0873 41.0379 47.0873C40.6454 47.0873 40.3271 47.4055 40.3271 47.7981V49.5C40.3271 50.6046 39.4317 51.5 38.3271 51.5H36.6729C35.5683 51.5 34.6729 50.6046 34.6729 49.5V47.7981C34.6729 47.4055 34.3546 47.0873 33.9621 47.0873C33.2974 47.0873 32.9963 46.2563 33.5068 45.8306Z" stroke="#CBCBCB"/>
</svg>
